<svg xmlns="http://www.w3.org/2000/svg" xmlns:xlink="http://www.w3.org/1999/xlink" width="1080" zoomAndPan="magnify" viewBox="0 0 810 809.999993" height="1080" preserveAspectRatio="xMidYMid meet" version="1.0"><defs><clipPath id="d843f603f9"><path d="M 0 97.996094 L 810 97.996094 L 810 679.996094 L 0 679.996094 Z M 0 97.996094 " clip-rule="nonzero"/></clipPath></defs><g clip-path="url(#d843f603f9)"><path fill="#ffffff" d="M 37.570312 415.105469 C 23.15625 399.125 13.332031 380.015625 8.101562 357.730469 C 2.867188 335.476562 0.246094 311.253906 0.246094 285.046875 C 0.246094 256.753906 2.078125 231.21875 5.746094 208.425781 C 9.410156 185.632812 17.921875 166.257812 31.277344 150.277344 C 44.636719 134.296875 64.550781 121.867188 91.011719 112.953125 C 117.453125 104.054688 153.214844 99.597656 198.292969 99.597656 L 487.613281 99.597656 L 418.125 247.351562 L 159 247.351562 C 159 255.207031 159.253906 263.195312 159.789062 271.320312 C 160.3125 279.445312 161.757812 287.03125 164.113281 294.113281 C 166.46875 301.195312 170.269531 306.964844 175.5 311.40625 C 180.734375 315.863281 188.335938 318.082031 198.292969 318.082031 L 384.886719 318.082031 L 315.402344 465.835938 L 198.292969 465.835938 C 156.898438 465.835938 123.355469 461.398438 97.703125 452.480469 C 72.019531 443.53125 51.984375 431.101562 37.570312 415.105469 Z M 37.183594 534.953125 L 37.183594 680.335938 L 214.507812 680.335938 L 282.886719 534.953125 Z M 809.835938 465.011719 C 806.941406 454.535156 803.410156 444.84375 799.222656 435.929688 C 795.015625 427.03125 790.1875 418.636719 784.6875 410.78125 C 779.1875 402.925781 773.804688 395.070312 768.574219 387.199219 C 776.949219 378.824219 783.375 370.292969 787.832031 361.648438 C 792.273438 353.003906 795.554688 344.105469 797.65625 334.9375 C 799.742188 325.769531 800.917969 316.46875 801.1875 307.03125 C 801.441406 297.59375 801.574219 288.175781 801.574219 278.738281 C 801.574219 252.546875 800.652344 228.445312 798.816406 206.441406 C 796.96875 184.441406 790.289062 165.316406 778.785156 149.066406 C 767.261719 132.832031 749.042969 120.25 724.167969 111.335938 C 699.289062 102.457031 664.046875 97.996094 618.464844 97.996094 L 522.199219 97.996094 L 451.617188 248.109375 L 612.964844 248.109375 C 621.339844 248.109375 627.898438 249.804688 632.609375 253.222656 C 637.320312 256.636719 640.734375 261.34375 642.820312 267.367188 C 644.90625 273.390625 646.082031 280.335938 646.351562 288.191406 C 646.605469 296.046875 646.738281 304.441406 646.738281 313.339844 L 420.9375 313.339844 L 350.355469 463.449219 L 646.757812 463.449219 C 646.757812 472.363281 646.488281 480.875 645.964844 489 C 645.445312 497.125 644.117188 504.324219 642.03125 510.613281 C 639.925781 516.90625 636.648438 521.882812 632.207031 525.550781 C 627.75 529.21875 621.324219 531.050781 612.945312 531.050781 L 318.917969 530.277344 L 248.335938 680.371094 L 619.253906 680.371094 C 664.839844 680.371094 700.601562 675.929688 726.539062 667.015625 C 752.476562 658.117188 771.988281 645.667969 785.089844 629.691406 C 798.179688 613.710938 806.300781 594.71875 809.449219 572.71875 C 812.59375 550.714844 814.15625 526.613281 814.15625 500.421875 C 814.15625 487.285156 812.710938 475.492188 809.835938 465.011719 Z M 809.835938 465.011719 " fill-opacity="1" fill-rule="nonzero"/></g></svg>